<svg width="450" height="450" viewBox="0 0 450 450" fill="none" xmlns="http://www.w3.org/2000/svg">
<rect width="450" height="450" fill="#31FF6C"/>
<path d="M110.448 270.896C103.877 270.896 97.9893 269.829 92.784 267.696C87.5787 265.563 83.3973 262.405 80.24 258.224C77.168 254.043 75.5467 249.008 75.376 243.12H98.672C99.0133 246.448 100.165 249.008 102.128 250.8C104.091 252.507 106.651 253.36 109.808 253.36C113.051 253.36 115.611 252.635 117.488 251.184C119.365 249.648 120.304 247.557 120.304 244.912C120.304 242.693 119.536 240.859 118 239.408C116.549 237.957 114.715 236.763 112.496 235.824C110.363 234.885 107.291 233.819 103.28 232.624C97.4773 230.832 92.7413 229.04 89.072 227.248C85.4027 225.456 82.2453 222.811 79.6 219.312C76.9547 215.813 75.632 211.248 75.632 205.616C75.632 197.253 78.6613 190.725 84.72 186.032C90.7787 181.253 98.672 178.864 108.4 178.864C118.299 178.864 126.277 181.253 132.336 186.032C138.395 190.725 141.637 197.296 142.064 205.744H118.384C118.213 202.843 117.147 200.581 115.184 198.96C113.221 197.253 110.704 196.4 107.632 196.4C104.987 196.4 102.853 197.125 101.232 198.576C99.6107 199.941 98.8 201.947 98.8 204.592C98.8 207.493 100.165 209.755 102.896 211.376C105.627 212.997 109.893 214.747 115.696 216.624C121.499 218.587 126.192 220.464 129.776 222.256C133.445 224.048 136.603 226.651 139.248 230.064C141.893 233.477 143.216 237.872 143.216 243.248C143.216 248.368 141.893 253.019 139.248 257.2C136.688 261.381 132.933 264.709 127.984 267.184C123.035 269.659 117.189 270.896 110.448 270.896ZM152.974 224.944C152.974 216.069 154.894 208.176 158.734 201.264C162.574 194.267 167.907 188.848 174.734 185.008C181.646 181.083 189.454 179.12 198.158 179.12C208.825 179.12 217.955 181.936 225.55 187.568C233.145 193.2 238.222 200.88 240.782 210.608H216.718C214.926 206.853 212.366 203.995 209.038 202.032C205.795 200.069 202.083 199.088 197.902 199.088C191.161 199.088 185.699 201.435 181.518 206.128C177.337 210.821 175.246 217.093 175.246 224.944C175.246 232.795 177.337 239.067 181.518 243.76C185.699 248.453 191.161 250.8 197.902 250.8C202.083 250.8 205.795 249.819 209.038 247.856C212.366 245.893 214.926 243.035 216.718 239.28H240.782C238.222 249.008 233.145 256.688 225.55 262.32C217.955 267.867 208.825 270.64 198.158 270.64C189.454 270.64 181.646 268.72 174.734 264.88C167.907 260.955 162.574 255.536 158.734 248.624C154.894 241.712 152.974 233.819 152.974 224.944ZM377.834 180.144L354.41 270H327.914L313.578 210.864L298.73 270H272.234L249.45 180.144H272.874L285.802 245.552L301.802 180.144H325.866L341.226 245.552L354.282 180.144H377.834Z" fill="black"/>
</svg>
